<svg width="24" height="25" viewBox="0 0 24 25" fill="none" xmlns="http://www.w3.org/2000/svg">
<g clip-path="url(#clip0_8_46)">
<path fill-rule="evenodd" clip-rule="evenodd" d="M14.0466 0.532885C14.0329 0.546632 14.0054 5.93521 14.0054 12.506C14.0054 23.3381 14.0054 24.4378 14.0879 24.4653C14.2253 24.5203 18.0746 24.4928 18.5558 24.4516C20.5767 24.2179 22.3501 22.9945 23.3262 21.1662C23.4499 20.9325 23.6149 20.5339 23.6974 20.3002C23.7063 20.2738 23.7149 20.2484 23.7233 20.2238C23.7589 20.1193 23.7899 20.0282 23.8169 19.936C24.0004 19.3099 24.0003 18.63 23.9999 13.3334C23.9999 13.0609 23.9998 12.7761 23.9998 12.4785C23.9998 6.78749 23.9861 5.93521 23.9173 5.56406C23.4224 2.97974 21.4565 1.02775 18.8583 0.574124C18.5146 0.519139 17.9784 0.505393 16.2462 0.505393C15.0502 0.491646 14.0604 0.505393 14.0466 0.532885ZM19.3532 11.3513C20.123 11.5575 20.7692 12.1486 21.0166 12.9046C21.1816 13.372 21.1816 14.0593 21.0166 14.4855C20.7142 15.269 20.123 15.8189 19.3532 16.025C18.1159 16.3412 16.7961 15.5989 16.4249 14.3617C16.315 13.9906 16.315 13.3445 16.4387 12.9596C16.8099 11.7362 18.1021 11.0214 19.3532 11.3513ZM0.216632 5.0967C0.821523 2.77357 2.74617 1.00029 5.13824 0.574147C5.45443 0.519162 6.1693 0.505414 8.53388 0.51916C11.4483 0.51916 11.5308 0.519162 11.5858 0.615386C11.6271 0.684117 11.6408 4.47812 11.6408 12.5335C11.6408 23.4069 11.6271 24.3691 11.5583 24.4379C11.4758 24.5066 11.1871 24.5066 8.41015 24.4928C5.71564 24.4791 5.30321 24.4516 4.97327 24.3829C2.45748 23.7918 0.684048 22.0185 0.134147 19.5304C0.0244853 19.0644 0.024168 18.9264 0.0105386 12.9976L0.0104196 12.9459C-0.0170754 6.4301 -0.00332798 5.93523 0.216632 5.0967ZM9.63368 22.5546V12.4923V2.42991H7.70903C5.59191 2.44365 5.28946 2.47114 4.62958 2.73233C3.32357 3.25469 2.36124 4.40939 2.0588 5.81152C1.94882 6.29264 1.94882 18.6644 2.0588 19.1592C2.38874 20.7538 3.58477 21.991 5.17948 22.4034C5.55067 22.4996 5.74313 22.5134 7.61279 22.5271L9.63368 22.5546ZM5.56442 5.46778C5.24823 5.52277 4.78081 5.7702 4.51961 5.99014C3.9972 6.44377 3.736 7.08985 3.77724 7.83216C3.79099 8.2308 3.81848 8.32703 3.98345 8.64319C4.21716 9.12432 4.5746 9.48172 5.05576 9.71541C5.3857 9.88037 5.46819 9.89411 5.90811 9.90786C6.30678 9.92161 6.44426 9.90786 6.70546 9.81164C7.77777 9.45423 8.43765 8.39576 8.24518 7.32354C8.02522 6.07262 6.81544 5.22035 5.56442 5.46778Z" fill="white"/>
</g>
<defs>
<clipPath id="clip0_8_46">
<rect width="24" height="24" fill="white" transform="translate(0 0.5)"/>
</clipPath>
</defs>
</svg>
