<svg width="24" height="25" viewBox="0 0 24 25" fill="none" xmlns="http://www.w3.org/2000/svg">
<g clip-path="url(#clip0_8_48)">
<path fill-rule="evenodd" clip-rule="evenodd" d="M14.4386 7.65276V13.5893C16.8758 14.7956 18.7935 13.5881 18.7935 10.4013C18.7935 7.13209 17.6715 5.68088 14.3606 4.51522C13.0586 4.06472 10.637 3.31634 8.975 3V20.7273L12.8846 22V7.13332C12.8846 6.43664 13.1882 5.97137 13.6766 6.13138C14.3126 6.31355 14.4386 6.95608 14.4386 7.65276ZM23.7867 17.543C23.3175 18.1498 22.1691 18.5818 22.1691 18.5818L13.625 21.7304V19.409L19.9131 17.1109C20.6271 16.8487 20.7363 16.4782 20.1567 16.2838C19.5783 16.088 18.5295 16.1447 17.8155 16.4081L13.625 17.9221V15.5132L13.8662 15.4295C13.8662 15.4295 15.077 14.9901 16.7798 14.7968C18.4827 14.6048 20.5671 14.8227 22.2039 15.4591C24.0471 16.0548 24.2547 16.9361 23.7867 17.543ZM1.80136 19.1665C-0.0922549 18.62 -0.406657 17.4802 0.456149 16.8241C1.25415 16.2173 2.61016 15.7606 2.61016 15.7606L8.2154 13.7161V16.0462L4.18217 17.5269C3.46937 17.7891 3.36017 18.1609 3.93857 18.3553C4.51817 18.5498 5.56698 18.4957 6.28098 18.2322L8.2154 17.5122V19.5973L7.82899 19.6638C5.8101 19.9994 3.74201 19.8288 1.80136 19.1665Z" fill="white"/>
</g>
<defs>
<clipPath id="clip0_8_48">
<rect width="24" height="24" fill="white" transform="translate(0 0.5)"/>
</clipPath>
</defs>
</svg>
