<svg width="24" height="25" viewBox="0 0 24 25" fill="none" xmlns="http://www.w3.org/2000/svg">
<path fill-rule="evenodd" clip-rule="evenodd" d="M5.37977 2.53562C5.44252 2.4677 5.51553 2.41 5.59616 2.36464C7.46385 1.15043 9.63356 0.5 12.0648 0.5C14.3213 0.5 16.4448 1.10537 18.2257 2.18788L18.2377 2.1957C18.3774 2.28608 18.7053 2.49822 18.8772 2.75282C17.1414 0.847742 12.0197 4.96404 12.0197 4.96404C10.2388 3.61928 8.63376 2.66617 7.41872 2.36464C6.37842 2.05733 5.68295 2.27337 5.37977 2.53562ZM20.8293 4.35405C20.8067 4.33383 20.7741 4.30119 20.7414 4.26855C20.7087 4.23591 20.676 4.20328 20.6534 4.18307C20.2819 3.76938 19.7336 3.55954 19.1803 3.61928C18.7464 3.74983 16.7074 4.48575 14.1443 6.86796C14.1443 6.86796 16.9655 9.63835 18.7464 12.4549C20.4655 15.2433 21.5013 17.4391 20.8892 20.472C20.7914 20.0491 20.3861 18.6235 19.0484 16.7468C18.6596 16.1819 17.2721 14.5356 16.4911 13.6692H16.4899L16.4841 13.6628C15.7033 12.7965 14.5745 11.5444 13.06 10.0716C12.948 9.96014 12.8355 9.85239 12.7227 9.74432C12.4893 9.52074 12.2545 9.29581 12.0197 9.03413C12.0197 9.03413 11.455 9.59791 10.763 10.3338C10.7006 10.3962 10.6368 10.46 10.5718 10.5249C9.68632 11.4095 8.5893 12.5056 7.98342 13.1955C6.81236 14.449 3.42645 18.3943 3.21006 20.6009C3.21006 20.6009 2.47294 18.8275 4.12308 14.7967C5.20735 12.1523 8.4625 8.16766 9.80482 6.86796C9.80482 6.86796 8.54813 5.48161 6.98478 4.57124L6.94312 4.53081C6.20715 4.09757 5.37977 3.74983 4.59752 3.70478C3.77592 3.74983 3.29569 4.35405 3.29569 4.35405C1.17402 6.53566 -0.00878429 9.45925 4.91233e-05 12.5C-0.000872066 15.6829 1.26518 18.7357 3.51949 20.9863C5.77381 23.2369 8.83158 24.5009 12.0197 24.5C15.5375 24.5 18.7013 22.9831 20.9161 20.6009C20.9161 20.6009 20.912 20.5757 20.9016 20.5271C22.9046 18.3338 24.0103 15.4692 23.9988 12.5C24.0417 9.47717 22.9051 6.55624 20.8293 4.3552V4.35405ZM20.9016 20.5271C20.8982 20.5112 20.8941 20.4928 20.8892 20.472C20.8833 20.5014 20.8772 20.5309 20.871 20.5605C20.8812 20.5494 20.8914 20.5382 20.9016 20.5271Z" fill="white"/>
</svg>
